# xmcd
#
# Track frame offsets:
#	150
#	7867
#	14842
#	22807
#	27670
#	32341
#	34920
#	41176
#	48518
#	54415
#	55629
#	62129
#	68930
#	72050
#	77793
#	81686
#	84274
#
# Disc length: 1189 seconds
#
# Revision: 1
# Processed by: cddbd v1.5.2PL0 Copyright (c) Steve Scherf et al.
# Submitted via: audiograbber 1.83.01
#
DISCID=db04a311
DTITLE=P.L.F. - Pulverizing Lethal Force
DYEAR=2007
DGENRE=Grindcore
TTITLE0=Pulverizing Lethal Force
TTITLE1=Have The Will To Stand Alone
TTITLE2=Seige Of The Headbanger
TTITLE3=Veteran Of Loserhood
TTITLE4=Instant Disintegration
TTITLE5=Human Shield
TTITLE6=Pinnacle Of Weakness
TTITLE7=Black Robe
TTITLE8=Strangled In Icy Dreams
TTITLE9=Fighting The Urge
TTITLE10=A Grim Afterthought
TTITLE11=Ripping Tighter
TTITLE12=The Highest Honor
TTITLE13=Imprison Yourself
TTITLE14=Shrapnel Decapitation
TTITLE15=Webs Of Entanglement
TTITLE16=No Escape
EXTD=
EXTT0=
EXTT1=
EXTT2=
EXTT3=
EXTT4=
EXTT5=
EXTT6=
EXTT7=
EXTT8=
EXTT9=
EXTT10=
EXTT11=
EXTT12=
EXTT13=
EXTT14=
EXTT15=
EXTT16=
PLAYORDER=
